<?xml version="1.0" encoding="UTF-8"?>
<svg width="14px" height="14px" viewBox="0 0 14 14" version="1.1" xmlns="http://www.w3.org/2000/svg" xmlns:xlink="http://www.w3.org/1999/xlink">
    <title>BNB </title>
    <g id="page-1" stroke="none" stroke-width="1" fill="none" fill-rule="evenodd">
        <g id="Markeplace" transform="translate(-455.000000, -625.000000)" fill="#F4BB0B" fill-rule="nonzero">
            <g id="marshalling-19" transform="translate(401.000000, 345.000000)">
                <g id="BNB-" transform="translate(54.000000, 280.000000)">
                    <path d="M7,8.69382716 L5.30617284,7 L7,5.30617284 L8.69382716,7 L7,8.69382716 Z M10.854321,7 L10.845679,7.00864198 L12.4185185,8.58148148 L14,7 L12.4098765,5.40987654 L10.837037,6.98271605 L10.854321,7 Z" id="shape-1"></path>
                    <path d="M4.27777778,5.86790123 L7,3.14567901 L9.7654321,5.91111111 L11.3382716,4.3382716 L7,0 L2.70493827,4.29506173 L4.27777778,5.86790123 Z M9.77407407,8.08024691 L7,10.854321 L4.25185185,8.09753086 L2.67901235,9.67037037 L7,14 L11.3469136,9.65308642 L9.77407407,8.08024691 Z M3.14567901,7 L3.20617284,6.93950617 L1.63333333,5.36666667 L0,7 L1.60740741,8.60740741 L3.18024691,7.0345679 L3.14567901,7 Z" id="shape-2"></path>
                </g>
            </g>
        </g>
    </g>
</svg>